<?xml version="1.0" standalone="no"?>
<!DOCTYPE svg PUBLIC "-//W3C//DTD SVG 20010904//EN"
 "http://www.w3.org/TR/2001/REC-SVG-20010904/DTD/svg10.dtd">
<svg version="1.0" xmlns="http://www.w3.org/2000/svg"
 width="700.000000pt" height="700.000000pt" viewBox="0 0 700.000000 700.000000"
 preserveAspectRatio="xMidYMid meet">
<metadata>
Created by potrace 1.11, written by Peter Selinger 2001-2013
</metadata>
<g transform="translate(0.000000,700.000000) scale(0.100000,-0.100000)"
fill="#000000" stroke="none">
<path d="M3280 6994 c-19 -2 -87 -9 -150 -15 -747 -70 -1502 -423 -2058 -963
-885 -858 -1254 -2088 -986 -3284 112 -503 359 -1014 690 -1427 113 -142 388
-416 529 -529 258 -206 637 -426 919 -535 832 -320 1720 -320 2552 0 282 109
661 329 919 535 141 113 416 387 529 529 192 239 385 565 504 845 245 579 327
1243 232 1873 -110 727 -438 1384 -955 1916 -563 578 -1289 938 -2095 1037
-117 15 -553 27 -630 18z m420 -2674 c171 -41 339 -147 455 -287 252 -305 252
-761 0 -1066 -393 -476 -1136 -392 -1410 158 -60 122 -85 230 -85 375 0 145
24 253 85 375 108 219 317 387 550 444 112 27 291 28 405 1z m-1205 -947 c57
-408 334 -731 730 -850 84 -25 103 -27 275 -27 172 0 191 2 275 27 397 120
675 444 730 850 l6 47 1161 0 1161 0 -7 -112 c-67 -1113 -675 -2109 -1638
-2679 -694 -412 -1540 -556 -2333 -398 -295 58 -540 141 -810 274 -198 98
-296 155 -457 268 -835 586 -1353 1515 -1414 2535 l-7 112 1161 0 1161 0 6
-47z"/>
<path d="M3395 4020 c-233 -50 -406 -248 -422 -485 -10 -156 39 -287 153 -402
210 -213 533 -216 744 -5 205 205 212 522 17 730 -106 111 -214 161 -362 167
-49 2 -108 0 -130 -5z m257 -192 c73 -34 142 -103 176 -176 23 -49 27 -70 27
-152 0 -82 -4 -103 -26 -150 -39 -82 -90 -135 -167 -172 -61 -30 -74 -33 -162
-33 -82 0 -103 4 -151 26 -79 37 -133 90 -171 167 -30 61 -33 74 -33 163 0 90
2 100 35 164 41 80 101 135 186 171 82 34 203 31 286 -8z"/>
</g>
</svg>
